<?xml version="1.0" encoding="utf-8"?>
<!-- Generator: Adobe Illustrator 27.5.0, SVG Export Plug-In . SVG Version: 6.00 Build 0)  -->
<svg version="1.1" id="Layer_1" xmlns="http://www.w3.org/2000/svg" xmlns:xlink="http://www.w3.org/1999/xlink" x="0px" y="0px"
	 viewBox="0 0 7000 8000" style="enable-background:new 0 0 7000 8000;" xml:space="preserve">
<g>
	<path style="fill:#4C2D59;" d="M6261.92,7993.864L738.08,8000c0,0,96.763-356.241,105.548-532.155
		c8.806-175.935,105.548-228.71,96.763-387.032c-8.806-158.322-52.774-255.086-8.806-378.226
		c43.989-123.139,123.161-237.494,123.161-281.461c0-5.728,0-15.805,0.043-29.176c0.259-89.098,2.261-324.202,17.549-393.039
		c17.591-79.15,149.516-413.408,184.699-474.967c35.182-61.581,52.774-87.957,52.774-87.957s26.398-70.365,158.344-193.526
		c131.924-123.139,197.897-131.924,197.897-131.924l402.491-55.25l2869.59-213.034c0,0,303.467,39.576,365.026,118.748
		c61.581,79.172,272.677,263.87,299.074,325.451c26.376,61.581,96.742,87.957,131.925,237.494
		c35.184,149.516,123.14,145.296,167.129,252.954c43.968,107.68,8.785,151.648,52.775,257.196
		c43.967,105.569,149.537,219.902,140.73,387.031C6086.007,6588.256,6261.92,7993.864,6261.92,7993.864z"/>
	<polygon style="fill:#F4D59F;" points="2800.724,1354.677 3675.918,1622.952 3917.805,2665.268 4216.867,3316.166 
		3900.214,4112.196 3231.724,4442.043 2624.806,4371.675 2343.337,4024.237 2083.857,3461.298 1991.5,2832.391 1960.715,2106.728 
		2176.215,1543.789 	"/>
	<path style="fill:#FF7DAB;" d="M5008.498,4714.72c-13.199-52.773-215.489-400.208-246.279-466.182
		c-30.79-65.973-294.661-545.354-294.661-545.354l61.56-593.714l-35.183-510.171c0,0-21.984-259.478-131.925-395.817
		c0,0-136.338-527.762-189.112-624.504c-52.795-96.763-334.257-391.424-334.257-391.424s-404.602-246.279-518.956-233.102
		c-114.354,13.199-501.365-0.495-501.365-0.495l-87.957-74.263c0,0-57.188-48.382-105.548,0l-167.129,206.704
		c0,0-360.634,215.51-452.983,479.381c-48.188,137.652-80.808,219.063-104.106,287.297
		c-21.381,62.571-34.903,114.053-45.431,187.691c-21.984,153.908-57.167,444.177-39.576,457.376
		c17.592,13.199,114.333,637.703,109.941,664.101c-4.392,26.376,79.323,466.182,143.013,549.747
		c63.691,83.542,244.019,664.08,279.202,730.052c27.173,50.944,77.923,162.155,99.627,210.214h0.021
		c6.417,14.189,10.292,22.867,10.292,22.867s-118.747,57.188-149.537,74.78c-30.79,17.591-114.333,13.199-136.338,87.957
		c-21.984,74.757,0,8.784-65.952,149.537c-65.973,140.73-136.339,158.322-123.161,237.473
		c13.199,79.172,30.79,175.936,13.199,246.301c-17.591,70.365-70.365,52.773,8.807,131.924
		c79.15,79.172,8.785-17.592,153.93,136.338c125.788,133.432,168.98,108.24,178.261,99.175
		c-28.616,33.804-349.136,413.71-428.954,564.927c-83.564,158.322-413.408,866.391-435.392,1292.997l-52.774,297.332h1037.912
		l-26.398-671.165c0,0-101.134-655.294,127.554-892.788c228.688-237.473,510.149-642.096,510.149-642.096l246.301,4.392
		c0,0,118.747-21.984,131.925-43.967c13.199-21.984,206.704-197.919,206.704-197.919s35.183-8.785,74.779-17.591
		c39.575-8.785,17.591,0,39.575-8.785c21.984-8.806,277.069-180.328,277.069-180.328s118.747-61.559,131.946-92.349
		c13.199-30.791,48.382-96.764,158.322-118.748c109.941-21.983,206.704-131.945,303.467-184.72
		c96.742-52.773,167.107-105.548,233.08-105.548c65.974,0,65.974,0,65.974,0S5021.696,4767.495,5008.498,4714.72z M3900.22,3360.142
		c-8.807,101.156-8.807,387.031-149.538,479.381l-255.086,224.295c0,0-149.516,105.548-219.903,131.946
		c-70.365,26.376-105.548,52.774-186.895,52.774c-81.368,0-213.314-8.807-279.287-22.005
		c-65.952-13.177-167.107-48.36-184.699-79.15c-14.383-25.17-116.874-100.251-161.057-153.263
		c-9.883-11.863-16.859-22.608-19.271-31.457c-6.265-22.91-34.192-52.709-64.208-83.349c-33.396-34.085-69.332-69.181-80.916-96.957
		c-1.248-3.015-2.691-6.331-4.306-9.926c-26.484-59.212-96.849-192.515-96.849-267.143c0-79.172-92.349-303.468-101.156-382.639
		c-8.785-79.151-8.785-136.339,0-272.656c8.807-136.339,13.199-123.161,13.199-184.72c0-61.58-52.774-241.887-39.597-325.451
		c13.199-83.564,26.398-329.844,26.398-329.844s13.824-39.166,48.941-95.299c73.337-117.219,239.604-308.42,566.778-370.883
		c0,0,341.923-63.562,563.936,135.649c45.647,40.953,86.234,93.017,117.735,159.011c0,0,193.527,395.817,215.511,413.408
		c21.984,17.592,17.591-8.807,21.984,17.592c4.393,26.376-8.785,149.537,65.973,277.069
		c74.758,127.532,123.14,250.671,131.946,329.844C3838.64,2955.541,3909.005,3258.986,3900.22,3360.142z"/>
	<path style="fill:#040404;" d="M3276.728,1679.445h-0.021c-222.013-199.211-563.936-135.649-563.936-135.649
		c-327.173,62.463-493.441,253.664-566.778,370.883c-17.031-126.068,100.596-282.926,131.365-344.507
		c30.79-61.559,219.903-343.043,233.102-356.22c13.199-13.199,83.564-127.553,127.532-171.521l30.79-158.344
		c10.034-51.547,57.188,35.183,92.371,118.747c35.183,83.565,140.731,180.328,211.872,277.07
		C3044.164,1376.667,3276.728,1679.445,3276.728,1679.445z"/>
	<g>
		<path style="fill:#FA6096;" d="M2849.223,954.963c0,0,422.083-0.5,606.797,162.224s321.051,86.484,532.153,797.491
			C3988.173,1914.679,3900.455,911.484,2849.223,954.963z"/>
		<path style="fill:#FA6096;" d="M3359.265,957.238c0,0,1007.132,366.653,778.438,1791.591
			C4137.703,2748.829,4515.928,1417.401,3359.265,957.238z"/>
		<path style="fill:#FA6096;" d="M4084.928,1534.151c0,0,373.827,871.638-96.755,1940.342
			C3988.173,3474.492,4520.326,2663.583,4084.928,1534.151z"/>
		<path style="fill:#FA6096;" d="M3961.785,1974.789c0,0,52.775,162.724,92.357,571.734s-13.194,818.02-92.357,985.142
			C3961.785,3531.666,4247.652,3153.441,3961.785,1974.789z"/>
		<path style="fill:#FA6096;" d="M4362.009,2203.483c0,0,236.502,947.163-273.172,1434.535
			C4088.837,3638.018,4669.876,3443.707,4362.009,2203.483z"/>
		<path style="fill:#FA6096;" d="M4326.815,3065.482l-237.978,422.204C4088.837,3487.686,4206.637,3147.896,4326.815,3065.482z"/>
		<path style="fill:#FA6096;" d="M4088.837,3558.053c0,0-165.922,215.102-289.777,281.469L4088.837,3558.053z"/>
		<path style="fill:#FA6096;" d="M4073.782,3675.864c0,0-314.303,374.761-556.191,405.547
			C3517.591,4081.41,3742.715,4127.546,4073.782,3675.864z"/>
		<path style="fill:#FA6096;" d="M4470.39,3675.864c0,0-54.085,225.23-199.983,308.792
			c-145.898,83.561-396.581,180.316-396.581,180.316s369.428-157.934,435.398-285.671
			C4375.193,3751.563,4470.39,3675.864,4470.39,3675.864z"/>
		<path style="fill:#FA6096;" d="M4405.979,4279.318c0,0,164.255,277.071-135.571,606.918c0,0,100.388-272.673,113.582-382.622
			C4397.183,4393.665,4366.397,4305.706,4405.979,4279.318z"/>
		<path style="fill:#FA6096;" d="M3482.408,5286.451c0,0,353.367-228.694,788-967.551
			C4270.407,4318.9,3618.744,5207.287,3482.408,5286.451z"/>
		<path style="fill:#FA6096;" d="M3988.173,5304.042c0,0-84.05-105.551-44.224-259.479c39.826-153.929,61.816-215.5,61.816-215.5
			s52.515-35.184,116.416-105.551c63.901-70.368,238.462-281.469,238.462-281.469s-110.149,233.091-188.534,312.255
			c-78.384,79.163-131.648,43.979-146.797,193.51C4010.163,5097.338,3948.591,5194.093,3988.173,5304.042z"/>
		<path style="fill:#FA6096;" d="M3148.163,5435.981c0,0-60.152-4.398,66.679-101.153
			c126.831-96.755,307.147-175.918,381.913-259.479c74.765-83.562,304.223-290.265,304.223-290.265s-354.393,275.56-418.57,347.438
			s-297.088,105.914-303.459,171.521S3069,5383.206,3148.163,5435.981z"/>
		<path style="fill:#FA6096;" d="M4401.581,3920.417c0,0-225.273,292.932-312.743,358.901s-434.909,219.898-434.909,219.898
			S4067.336,4335.557,4401.581,3920.417z"/>
		<path style="fill:#FA6096;" d="M3583.561,4499.216c0,0-747.653,400.214-791.632,422.204
			c-43.979,21.99-272.673,167.123-365.03,228.694c-92.357,61.571-127.541,0-158.326,109.949
			c-30.786,109.949-17.592,197.908-87.959,224.296c-70.367,26.388-149.531,39.582-149.531,39.582H1991.5
			c0,0,17.743-65.969,77.04-109.949c59.297-43.979,85.685-105.551,125.266-127.541c39.582-21.99,109.949-127.541,109.949-127.541
			s48.377,39.582,52.775-48.377c0.945-18.898-4.398-224.296-4.398-224.296s-70.367,219.898-92.357,224.296
			c-12.473,2.495-51.831,58.759-83.561,106.992c-24.21,36.801-43.979,68.927-43.979,68.927l-30.786,17.592
			c0,0,96.755-171.521,127.541-215.5c30.786-43.979,13.194-21.99,21.99-76.964c8.796-54.975-8.796-59.373,43.98-138.536
			c52.775-79.163,52.775-79.163,52.775-79.163l2.24-65.848l19.364-9.692c0,0,13.579-34.409,13.579,84.336
			c0,118.745,0,343.041,0,343.041s17.592-8.796,105.551-74.765c87.959-65.969,17.592-92.357-4.398-162.725
			s-60.074-39.582-70.367-123.143c-10.293-83.562,23.385-155.694,33.683-132.827c10.297,22.867,54.276-69.479,54.276-69.479
			s-35.184-4.398-13.194,109.949c21.99,114.347,65.969,96.755,101.153,180.316s39.582,105.551,39.582,105.551
			s35.184,74.766,35.184-17.592c0-92.357,21.99-92.357,43.98-74.765s21.99,17.592,21.99,17.592s48.377-26.388,219.898-101.153
			C3121.775,4727.91,3583.561,4499.216,3583.561,4499.216z"/>
		<path style="fill:#FA6096;" d="M3231.724,4442.043c0,0-8.796,65.969-167.122,140.734s-312.255,136.337-334.245,219.898
			c-4.109,15.615-8.603,28.312-13.194,38.636c-19.977,44.925-41.795,44.925-41.795,44.925l32.999-149.53
			c-127.541-70.368-149.531-8.796-149.531-109.949c0-101.153-21.99-162.724,17.592-184.714c0,0,57.173,35.184,70.367,57.173
			s61.572,26.388,43.98,83.561c-17.592,57.173-48.378,52.775-30.786,81.362c17.592,28.586,70.367,24.188,70.367,41.78
			c0,17.592-30.786,43.98,35.184-13.194c65.969-57.173,39.582-92.357,153.928-109.949S3200.938,4525.604,3231.724,4442.043z"/>
		<path style="fill:#FA6096;" d="M3359.265,4164.972c-83.571,30.793-96.93,67.479-270.474,153.928
			c-173.544,86.45-257.28,69.124-283.668,107.128c-26.388,38.005-109.949,49.35-17.592-35.486
			c92.357-84.836,93.188-19.306,197.229-80.654C3088.799,4248.539,3359.265,4164.972,3359.265,4164.972z"/>
		<path style="fill:#FA6096;" d="M2336.892,5838.609c0,0-85.913-20.006,138.383-20.006s250.684-52.775,395.816-39.582
			s197.898,8.794,197.898,8.794S2451.034,5876.87,2336.892,5838.609z"/>
		<path style="fill:#FA6096;" d="M1907.939,7993.864c0,0-4.398-160.997,0-380.895s4.398-356.235,43.98-558.541
			c39.582-202.306,96.755-457.388,167.122-580.53c70.367-123.143,79.163-145.133,87.959-171.521s264.043-454.642,264.043-454.642
			s-756.614,1030.774-611.482,2152.253L1907.939,7993.864z"/>
		<path style="fill:#FA6096;" d="M2228.99,7973.602c0,0-101.153-343.041-101.153-567.336s-13.194-571.734,50.576-730.061
			c63.77-158.326,125.342-452.989,204.505-567.336c79.163-114.347,171.521-296.336,171.521-296.336h40.547
			c0,0-0.966,19.265-84.527,151.204c-83.561,131.938-115.185,235.768-211.102,439.795
			c-95.917,204.028-154.667,461.786-143.303,598.123c11.365,136.336,15.762,518.958,59.742,681.683
			c43.98,162.725,61.572,310.527,61.572,310.527h-43.98L2228.99,7973.602z"/>
		<path style="fill:#FA6096;" d="M1701.235,7993.864c0,0,30.786-182.987,30.786-297.333s39.582-250.684,48.377-378.224
			c8.796-127.541,50.967-162.725,60.667-347.439c9.7-184.714,22.894-268.275,97.66-369.428
			c74.765-101.153,188.373-347.438,217.329-356.234c28.956-8.796,204.792-369.428,204.792-369.428l70.454-56.874l-70.454,2.685
			c0,0-114.265,177.332-162.642,278.484c-48.377,101.153-136.337,202.306-184.714,303.459
			c-48.378,101.153-83.561,52.313-118.745,215.5c-35.184,163.187-83.561,196.256-83.561,304.832s-35.184,82.188-52.776,249.311
			c-17.592,167.123-26.388,189.112-35.184,299.061c-8.796,109.949-8.796,338.643-21.99,369.429
			c-13.194,30.786-35.184,158.326-35.184,158.326L1701.235,7993.864z"/>
		<path style="fill:#FA6096;" d="M2457.685,1086.398c0,0-193.511,114.35-285.868,268.279s-211.102,351.837-211.102,351.837
			S2308.155,1161.16,2457.685,1086.398z"/>
		<path style="fill:#FA6096;" d="M2013.49,2203.483c0,0,149.532-774.04,444.194-1073.101s-17.593,0-17.593,0
			S2017.888,1658.136,2013.49,2203.483z"/>
		<path style="fill:#FA6096;" d="M2879.888,997.465c0,0,360.632,452.99,452.99,603.009
			C3332.877,1600.474,3099.785,1176.804,2879.888,997.465z"/>
	</g>
	<path style="fill:#FA6096;" d="M2552.747,4499.21c-51.073,83.565-51.073,83.565-51.073,83.565l-54.282,69.482h-0.021
		c-21.704-48.059-72.454-159.27-99.627-210.214c-35.183-65.973-215.511-646.51-279.202-730.052
		c-63.69-83.564-147.406-523.37-143.013-549.747c4.393-26.398-92.349-650.902-109.941-664.101
		c-17.591-13.199,17.592-303.468,39.576-457.376c10.529-73.638,24.051-125.12,45.431-187.691
		c0.754,7.88,96.979,1020.579,117.886,1163.033c20.993,143.014,36.044,528.107,146.825,621.899
		c44.161,37.379,88.667,85.588,129.749,134.422c30.898,36.733,59.836,73.811,85.222,106.883
		c25.558,33.31,47.521,62.549,64.208,83.349c10.034,12.488,15.998,22.63,19.271,31.457c14.792,39.813-25.192,52.947,7.278,135.672
		c39.683,101.048,72.627,57.166,113.192,149.537c40.028,91.08-6.481,160.777-7.751,162.672
		C2577.702,4440.838,2602.593,4417.669,2552.747,4499.21z"/>
	<path style="opacity:0.35;fill:#2E213F;" d="M1556.111,5356.816l-43.989,167.129c0,0-140.731,422.193-193.505,545.333
		c-52.775,123.162-202.312,272.677-202.312,272.677l-61.516,49.996c0.259-89.098,2.261-324.202,17.549-393.039
		c17.591-79.15,149.516-413.408,184.699-474.967c35.182-61.581,52.774-87.957,52.774-87.957s26.398-70.365,158.344-193.526
		l-17.613,61.581L1556.111,5356.816z"/>
	<path style="fill:#2E213F;" d="M4749.019,7995.542c0,0-70.367-554.093-43.979-817.97s43.98-615.714,140.735-835.612
		s-272.673,1096.034-35.184,1651.904L4749.019,7995.542z"/>
	<path style="fill:#2E213F;" d="M3583.561,6526.674c0,0,692.317,246.286,867.316,580.53
		C4450.877,7107.205,4212.469,6465.103,3583.561,6526.674z"/>
	<path style="fill:#2E213F;" d="M3799.061,7063.225c0,0,603.803,272.673,671.33,281.469
		C4470.39,7344.694,4186.081,7080.817,3799.061,7063.225z"/>
</g>
</svg>
