<?xml version="1.0" encoding="utf-8"?>
<!-- Generator: Adobe Illustrator 27.5.0, SVG Export Plug-In . SVG Version: 6.00 Build 0)  -->
<svg version="1.1" id="Layer_1" xmlns="http://www.w3.org/2000/svg" xmlns:xlink="http://www.w3.org/1999/xlink" x="0px" y="0px"
	 viewBox="0 0 2100 2100" style="enable-background:new 0 0 2100 2100;" xml:space="preserve">
<rect style="fill:none;" width="2100" height="2100"/>
<g>
	<path style="fill:#009ade;" d="M1047.455,1379.101c0.805,1.098,1.672,2.282,2.624,3.52c0.143-0.118,0.287-0.232,0.402-0.349l0.374-0.316
		L1047.455,1379.101z"/>
	<path style="fill:#009ade;" d="M1930.335,1093.305l-137.482-524.67c-4.504-17.211-22.319-27.689-39.556-23.234l-136.432,35.103
		c-17.267,4.427-27.667,22.163-23.161,39.4l6.343,24.232l-48.623,12.522c-14.07,3.614-22.582,18.076-18.889,32.144l112.177,428.057
		c3.665,14.041,18.205,22.584,32.272,18.964l48.623-12.52l5.578,21.274c4.506,17.21,22.319,27.687,39.556,23.233l136.435-35.099
		C1924.439,1128.278,1934.868,1110.546,1930.335,1093.305z M1829.95,1112.747c-14.227,3.77-28.663,1.206-40.29-6.001
		c-10.819-6.65-19.203-17.342-22.712-30.6c-6.212-23.416,4.765-47.36,25.171-58.443c3.54-1.911,7.365-3.458,11.424-4.532
		c27.507-7.308,55.696,9.065,63.004,36.572C1873.828,1077.25,1857.457,1105.435,1829.95,1112.747z"/>
	<path style="fill:#009ade;" d="M192.823,1132.71l136.435,35.099c17.236,4.454,35.049-6.023,39.556-23.233l5.578-21.274l48.623,12.52
		c14.067,3.621,28.608-4.923,32.273-18.964l112.177-428.057c3.693-14.068-4.82-28.53-18.889-32.144l-48.624-12.522l6.343-24.232
		c4.506-17.238-5.894-34.974-23.161-39.4l-136.432-35.103c-17.237-4.455-35.052,6.023-39.556,23.234l-137.482,524.67
		C165.132,1110.546,175.561,1128.278,192.823,1132.71z M233.453,1049.743c7.307-27.506,35.496-43.88,63.004-36.572
		c4.059,1.074,7.884,2.62,11.424,4.532c20.406,11.083,31.382,35.026,25.171,58.443c-3.509,13.258-11.893,23.95-22.712,30.6
		c-11.628,7.207-26.063,9.771-40.29,6.001C242.543,1105.435,226.172,1077.25,233.453,1049.743z"/>
	<path style="fill:#009ade;" d="M705.882,1287.843c-4.56,8.918-33.04,6.554-60.475-12.897c-25.218-17.881-28.04-44.792-17.293-58.815
		c20.81-27.472,57.447-68.288,86.444-45.719C752.895,1200.216,731.651,1231.782,705.882,1287.843z"/>
	<path style="fill:#009ade;" d="M818.01,1381.9c-7.189,13.46-44.332,0.186-61.283-13.797c-21.087-17.392-38.151-48.187-28.189-60.223
		c25.913-37.331,76.385-90.63,106.797-65.954C879.722,1277.929,848.649,1325.748,818.01,1381.9z"/>
	<path style="fill:#009ade;" d="M922.123,1465.17c-4.106,10.872-32.303-3.608-49.339-14.896c-22.755-15.075-32.349-35.637-26.066-44.886
		c21.678-28.853,43.094-49.89,60.678-45.568C949.738,1370.196,942.965,1416.198,922.123,1465.17z"/>
	<path style="fill:#009ade;" d="M1477.334,1209.849c-3.492-6.656-10.144-12.119-16.373-18.429c-35.525-36.067-80.315-64.744-109.955-83.721l-0.228-0.145
		c-9.083-5.819-16.925-10.843-22.317-14.72c-16.11-11.573-36.378-24.991-57.838-39.199
		c-73.159-48.436-173.354-114.771-221.624-183.646c-1.654-2.343-3.332-4.844-5.242-7.813l-0.807-1.253l-0.633-1.348
		c-1.237-2.636-3.441-6.309-5.689-9.802c-10.675,4.117-29.52,14.692-44.028,22.833c-28.452,15.966-60.7,34.063-88.416,40.882
		c-19.887,4.892-40.114,7.373-60.117,7.373c-66.857,0-119.759-27.603-125.791-65.633c-2.876-18.133,2.492-51.868,70.75-74.077
		c9.557-3.11,52.183-21.6,62.986-26.933c34.539-17.045,70.824-46.639,105.914-75.257c24.104-19.66,47.649-38.85,70.932-54.544
		c-20.887-10.435-41.144-16.11-60.536-14.046c-47.106,5.014-70.491,10.18-143.938,45.409l-0.005-0.004
		c-67.563,32.427-128.469,31.736-216.472,35.282c-6.859,0.287-14.556,9.05-17.438,16.89c-2.824,7.87-15.738,51.365-21.764,72.178
		c-6.053,20.868-16.863,60.878-24.069,88.923c-7.206,28.075-19.312,76.299-26.979,107.199
		c-7.639,30.899-19.889,77.309-27.181,103.106c-7.322,25.831-5.91,46.581,3.111,46.175c9.052-0.427,23.551,2.135,32.199,5.71
		c8.617,3.575,26.776,15.713,40.297,26.977c4.74,3.937,22.413,20.658,45.602,42.48c30.547-39.821,58.219-59.28,84.468-59.28
		c11.575,0,22.706,3.901,32.19,11.284c37.839,29.418,33.482,62.504,19.341,97.613c19.951-19.453,44.927-37.125,69.849-37.125
		c11.778,0,22.824,3.91,31.943,11.31c25.439,20.634,35.003,47.418,28.421,79.6c-3.818,18.674-12.667,37.653-23.121,57.338
		c17.24-17.002,32.412-24.623,47.897-24.623c3.416,0,6.807,0.408,10.08,1.212c24.13,5.914,35.743,20.233,41.234,31.203
		c10.671,21.32,9.103,50.403-4.814,88.554c10.717-6.431,20.716-9.604,30.246-9.604c3.791,0,7.511,0.504,11.058,1.497
		c24.574,6.913,64.073,28.899,52.88,98.575c-0.436,2.964-1.307,5.703-2.517,8.211c3.588,1.609,8.207,2.047,11.913,1.824
		c19.371-1.166,31.725,0,50.313-15.667c17.508-14.751,28.465-23.415,15.492-46.475c-22.565-40.382-48.13-87.318-67.702-112.511
		c-0.259-0.351-0.517-0.692-0.776-1.008c-0.952-1.238-1.819-2.422-2.624-3.52l3.4,2.856l0.375,0.316
		c0.115,0.116,0.262,0.23,0.402,0.349c16.143,13.629,64.595,61.224,114.205,95.059c19.119,12.515,50.289,0.535,56.185-1.447
		c21.491-7.218,42.175-38.881,29.804-54.842c-40.045-51.67-101.902-98.757-116.226-124.642c0,0,70.963,53.989,143.144,89.328
		c13.206,6.012,46.539,17.892,68.987-6.977c18.201-20.161,40.827-43.613,10.744-75.85c-42.712-45.759-91.552-84.874-110.748-101.273
		c20.349,13.026,68.4,41.272,131.325,65.086c10.001,3.772,19.858,7.003,29.37,9.425c12.693,4.373,39.284,0.574,56.207-15.663
		C1475.188,1250.7,1483.898,1222.36,1477.334,1209.849z"/>
	<path style="fill:#009ade;" d="M1021.166,1544.873c-1.807,13.41-38.469-6.273-51.858-16.75c-18.269-14.295-28.966-35.918-22.596-40.845
		c14.122-12.02,27.324-18.905,37.703-15.994C1019.264,1481.087,1026.815,1509.966,1021.166,1544.873z"/>
	<path style="fill:#009ade;" d="M1611.263,1079.354c-7.294-25.797-19.545-72.206-27.183-103.106c-7.667-30.9-19.801-79.124-27.008-107.199
		c-7.178-28.046-18.015-68.055-24.04-88.923c-6.023-20.813-18.966-64.308-21.793-72.178c-2.852-7.84-10.547-16.603-17.41-16.89
		c-88-3.545-148.937-2.855-216.471-35.282l-0.011,0.008c-73.452-35.232-96.837-40.398-143.943-45.412
		c-80.973-8.616-176.972,117.344-271.457,163.974c-10.269,5.068-54.574,24.439-65.976,28.149
		c-123.943,40.326-19.966,119.413,102.851,89.2c54.713-13.461,138.505-81.346,150.676-62.927c0,0,9.047,12.566,13.134,21.265
		c1.515,2.354,3.08,4.712,4.745,7.075c45.829,65.391,143.974,130.369,215.636,177.813c21.655,14.337,42.107,27.879,58.552,39.693
		c4.94,3.553,12.627,8.474,21.53,14.177c30.486,19.518,76.558,49.014,113.837,86.862c6.941,7.031,12.986,13.865,18.071,20.358
		c20.715-19.501,36.226-34.144,40.621-37.794c13.548-11.264,31.678-23.402,40.328-26.977c8.647-3.575,23.146-6.137,32.167-5.71
		C1617.141,1125.935,1618.584,1105.185,1611.263,1079.354z"/>
</g>
</svg>
