<?xml version="1.0" encoding="utf-8"?>
<!-- Generator: Adobe Illustrator 27.5.0, SVG Export Plug-In . SVG Version: 6.00 Build 0)  -->
<svg version="1.1" id="_x5F_" xmlns="http://www.w3.org/2000/svg" xmlns:xlink="http://www.w3.org/1999/xlink" x="0px" y="0px"
	 viewBox="0 0 2214.716 2277.448" style="enable-background:new 0 0 2214.716 2277.448;" xml:space="preserve">
<g>
	<g>
		<path style="fill:#A7E5EA;" d="M1823.447,1540.465l-716.089-159.737l-716.089,159.737
			c-102.868,22.947-182.648,104.199-203.71,207.47l-86.89,425.992h2013.378l-86.887-425.992
			C2006.095,1644.665,1926.314,1563.412,1823.447,1540.465z"/>
		<path style="fill:#DA923E;" d="M1398.48,1446.172c-188.529,154.675-382.447,159.231-582.242,0l45.566-359.472h491.108
			L1398.48,1446.172z"/>
		<g>
			<path style="fill:#EB9C48;" d="M1479.346,971.071L1479.346,971.071l18.574-335.905l79.334,4.386
				c37.152,2.054,65.602,33.836,63.548,70.985l-6.748,122.037C1629.579,913.541,1560.313,975.549,1479.346,971.071z"/>
			<path style="fill:#EB9C48;" d="M735.369,971.071L735.369,971.071l-18.571-335.905l-79.337,4.386
				c-37.15,2.054-65.602,33.836-63.546,70.985l6.746,122.037C585.139,913.541,654.405,975.549,735.369,971.071z"/>
		</g>
		<path style="fill:#663124;" d="M651.691,660.503c0-314.575,204.009-511.415,455.667-511.415
			c251.66,0,455.669,196.84,455.669,511.415c0,14.004-29.625,289.753-31.659,303.414
			c-29.581,198.709-281.007,397.054-424.01,397.054c-147.849,0-394.427-188.649-422.337-382.135
			C682.342,960.273,651.691,679.592,651.691,660.503z"/>
		<path style="fill:#EB9C48;" d="M993.815,1188.253c-36.545,0.194-61.731-38.238-45.32-70.889
			c26.106-51.946,79.881-87.588,141.98-87.588l0,0c61.407,0,114.586,35.225,140.436,86.569c16.33,32.438-8.474,70.698-44.79,70.89
			L993.815,1188.253z"/>
		<path style="fill:#EB9C48;" d="M727.776,811.597l19.39-234.587c5.646-68.312,72.979-113.92,138.512-93.823l219.155,67.214
			l216.613-66.924c65.517-20.242,132.964,25.27,138.711,93.602l19.189,228.093c0,66.655-29.474,129.898-80.516,172.763
			l-33.691,28.292c-26.883,22.579-42.401,55.853-42.388,90.959c0.016,41.15,0.033,90.201,0.033,90.201
			c0,6.815-5.526,12.341-12.343,12.341c-6.815,0-12.341-5.526-12.341-12.341v-12.419c0-73.528-23.845-145.073-67.959-203.898l0,0
			H956.732l0,0c-40.392,57.03-62.088,125.192-62.088,195.076v21.241c0,6.815-5.524,12.341-12.341,12.341
			c-6.815,0-12.341-5.526-12.341-12.341c0,0,0.027-53.707,0.049-95.895c0.016-31.733-13.233-61.996-36.541-83.531l-33.185-30.656
			C754.061,934.601,727.776,874.529,727.776,811.597z"/>
		<path style="fill:#A7E5EA;" d="M640.191,577.079l1.329-20.184C659.293,286.92,854.728,103.52,1107.36,103.52
			c252.63,0,448.063,183.4,465.836,453.375l1.329,20.184C1261.159,329.892,949.601,315.669,640.191,577.079z"/>
		
			<rect x="1046.76" y="1559.842" transform="matrix(-1 -1.224647e-16 1.224647e-16 -1 2207.1226 3432.6265)" style="fill:#72909C;" width="113.603" height="312.943"/>
	</g>
	<path style="opacity:0.1;fill:#420E00;" d="M1107.358,2173.928H100.669l86.888-425.992
		c21.065-103.271,100.845-184.524,203.715-207.47l425.029-94.811l26.68-210.452c-79.832-70.508-144.468-162.837-157.96-256.367
		c-0.285-1.982-0.908-7.102-1.759-14.426c-56.633-17.824-99.128-69.05-102.6-131.835l-6.748-122.037
		c-2.054-37.149,26.399-68.931,63.548-70.985l14.671-0.812c0.812-26.566,3.131-52.224,6.804-76.973
		c-6.248,5.053-12.499,10.035-18.745,15.311l1.329-20.184C659.295,286.92,854.728,103.52,1107.36,103.52
		C1127.274,103.52,1107.358,2173.928,1107.358,2173.928z"/>
</g>
</svg>
