<?xml version="1.0" encoding="utf-8"?>
<!-- Generator: Adobe Illustrator 27.5.0, SVG Export Plug-In . SVG Version: 6.00 Build 0)  -->
<svg version="1.1" id="Layer_1" xmlns="http://www.w3.org/2000/svg" xmlns:xlink="http://www.w3.org/1999/xlink" x="0px" y="0px"
	 viewBox="0 0 2100 2100" style="enable-background:new 0 0 2100 2100;" xml:space="preserve">
<rect y="0.001" style="fill-rule:evenodd;clip-rule:evenodd;fill:#FEFEFE00;" width="2100" height="2100"/>
<path style="fill-rule:evenodd;clip-rule:evenodd;fill:#C9CACA;" d="M1050,1555.919c497.057,0,900,62.232,900,139
	s-402.943,139-900,139s-900-62.232-900-139S552.943,1555.919,1050,1555.919"/>
<path style="fill-rule:evenodd;clip-rule:evenodd;fill:#F5C8A9;" d="M845.264,1353.582c-29.457,0-59.741-30.781-68.458-59.985
	c-5.673-19.01-26.105-123.64,20.671-113.429c29.953,6.538,46.561,24.805,62.415,48.828c24.592,37.264,111.813,95.509,17.443,118.258
	c-9.203,2.218-28.238,0.995-34.571,7.328L845.264,1353.582z"/>
<path style="fill-rule:evenodd;clip-rule:evenodd;fill:#F5C8A9;" d="M953.265,578.582c37.618,123.503,58.932,68.353,85.07,144.986
	c12.473,36.567-15.687,33.967,31.429,36.429c10.046,0.524,1.196,41.122,54.657,53.657
	c131.587,30.851,152.656-22.031,225.601-109.743c36.113-43.425,100.314-25.344,50.742-148.343
	c-6.931-17.198-58.467-119.499-77.828-123.743c-135.68-29.746-236.964-6.086-336.171,84.257
	C979.816,522.409,954.337,568.476,953.265,578.582"/>
<path style="fill-rule:evenodd;clip-rule:evenodd;fill:#332C2B;" d="M951.08,578.582c18.446,5.244,171.201-37.701,206.24-56.9
	c36.643-20.078,106.179-37.861,157.683-70.686c38.556-24.573,19.838-2.77-9.977-75.829c-9.096-22.289-37.15-109.086-57.699-109.086
	c-25.275,0-332.545,85.745-342.808,113.228c-11.147,29.852,37.996,104.807,38.348,171.942
	C942.89,555.879,948.16,577.752,951.08,578.582"/>
<path style="fill-rule:evenodd;clip-rule:evenodd;fill:#332C2B;" d="M1416.293,604.093c-2.711-13.189-7.697-29.092-15.529-48.525
	c-6.931-17.198-58.467-119.499-77.828-123.743c-83.477-18.301-153.931-16.376-218.895,8.847
	c-21.216,20.047-35.404,44.373-38.191,72.41c-0.991,9.965-9.523,4.583-0.586,23c72.92,17.706,73.22,110.073,104.672,48.343
	c57.268-112.398,80.786,46.927,86.5,49.657C1329.684,669.082,1390.304,625.128,1416.293,604.093"/>
<polygon style="fill-rule:evenodd;clip-rule:evenodd;fill:#FEFEFE;" points="490.264,998.582 631.264,942.582 1118.265,1307.582 
	952.264,1338.582 "/>
<polygon style="fill-rule:evenodd;clip-rule:evenodd;fill:#DCDDDD;" points="1118.265,1307.582 631.264,942.582 769.264,809.582 
	1237.264,1193.582 "/>
<polygon style="fill-rule:evenodd;clip-rule:evenodd;fill:#FEFEFE;" points="540.794,1021.434 659.104,974.445 1067.734,1280.708 
	928.447,1306.72 "/>
<path style="fill:#332C2B;" d="M658.349,980.103l-107.36,42.64l378.676,278.679l126.006-23.531L658.349,980.103z M538.958,1016.805
	l118.31-46.988l2.591-1.029l2.233,1.673l408.63,306.263l9.074,6.801l-11.164,2.086l-139.287,26.011l-2.116,0.396l-1.732-1.274
	l-387.653-285.286l-7.246-5.332L538.958,1016.805z"/>
<polygon style="fill-rule:evenodd;clip-rule:evenodd;fill:#DCDDDD;" points="1083.329,1260.305 688.794,964.607 800.592,856.859 
	1179.734,1167.95 "/>
<path style="fill:#332C2B;" d="M696.469,964.135l386.461,289.647l89.299-85.547L800.862,863.524L696.469,964.135z
	 M1080.341,1264.289L685.806,968.591l-4.687-3.512l4.218-4.066l111.798-107.747l3.187-3.071l3.434,2.817l379.142,311.091
	l4.342,3.563l-4.049,3.879l-96.406,92.354l-3.058,2.93L1080.341,1264.289z"/>
<polygon style="fill-rule:evenodd;clip-rule:evenodd;fill:#C9CACA;" points="952.264,1338.582 490.264,998.582 486.733,1060.062 
	939.734,1378.063 1128.733,1335.063 1238.734,1219.062 1237.264,1193.582 1118.265,1307.582 "/>
<path style="fill-rule:evenodd;clip-rule:evenodd;fill:#F5C8A9;" d="M678.766,1540.582c-74.414,7.291-103.455-19.791-65.172,40.414
	c8.662,13.623-35.06,25.863,14.658,76.086c25.691,25.952-20.233,48,116.257,48c155.637,0,158.593-60.351,25.514-140.086
	C759.194,1558.508,685.366,1529.316,678.766,1540.582"/>
<g>
	<defs>
		<path id="SVGID_1_" d="M837.595,1343.254c0.666-0.015-86.899,26.569-125.658,52.514c-135.07,90.414-21.415,327.977,228.8,344.629
			c123.755,8.236,209.022,24.686,349.029,24.686c136.441,0,687.824,15.912,439.486-246.343
			c-107.558-113.586-249.872-169.657-403.314-169.657c-192.272,0-238.936,19.431-442.172-9.486
			C868.842,1337.473,851.483,1338.083,837.595,1343.254"/>
	</defs>
	<use xlink:href="#SVGID_1_"  style="overflow:visible;fill-rule:evenodd;clip-rule:evenodd;fill:#89c14b;"/>
	<clipPath id="SVGID_00000164507852544047113470000009323567343466044291_">
		<use xlink:href="#SVGID_1_"  style="overflow:visible;"/>
	</clipPath>
	<path style="clip-path:url(#SVGID_00000164507852544047113470000009323567343466044291_);fill:#467660;" d="M608.506,1332.511
		c49.839,0.418,169.172,20.451,265.446,36.612c42.41,7.119,80.339,13.487,105.642,17.063c25.772,3.643,48.056,6.912,69.13,10.003
		c168.918,24.779,262.633,38.526,449.435,3.502c5.853-1.098,26.895-5.5,42.814-9.105c9.417-2.132,15.938-3.01,16.269-3.34
		l8.438,8.484c-1.469,1.467-10.753,3.963-22.081,6.528c-16.134,3.653-37.365,8.097-43.236,9.197
		c-188.811,35.401-283.214,21.554-453.372-3.407c-22.277-3.268-45.815-6.721-69.037-10.003
		c-25.627-3.622-63.558-9.989-105.97-17.109c-95.924-16.103-214.824-36.063-263.571-36.472L608.506,1332.511z"/>
	<path style="clip-path:url(#SVGID_00000164507852544047113470000009323567343466044291_);fill:#467660;" d="M619.756,1397.121
		c88.738-12.997,216.164,8.276,347.675,30.232c108.501,18.115,219.801,36.697,313.707,36.697c5.164,0,16.284,0.139,29.882,0.309
		c71.533,0.892,217.724,2.715,247.886-12.652l5.438,10.688c-32.721,16.671-180.938,14.822-253.464,13.918
		c-11.522-0.144-20.952-0.262-29.741-0.262c-94.751,0-206.62-18.677-315.675-36.885c-130.557-21.796-257.058-42.916-343.972-30.186
		L619.756,1397.121z"/>
	<path style="clip-path:url(#SVGID_00000164507852544047113470000009323567343466044291_);fill:#467660;" d="M573.623,1512.051
		c12.63,0,49.108,0.425,99.52,1.013c233.644,2.723,774.193,9.022,827.373-8.309c4.619-1.505,26.236-6.466,49.906-11.705
		c33.041-7.314,70.622-15.116,71.999-14.929l-1.594,11.859c-0.372-0.051-35.797,7.65-67.827,14.741
		c-23.227,5.142-44.388,9.992-48.781,11.425c-54.977,17.916-596.922,11.6-831.169,8.87c-48.069-0.56-82.847-0.966-99.426-0.966
		V1512.051z"/>
	<path style="clip-path:url(#SVGID_00000164507852544047113470000009323567343466044291_);fill:#467660;" d="M1654.327,1546.004
		l-493.857,58.828l-21.398,2.552c-69.146,8.246-95.438,11.382-112.707,12.216c-10.674,0.515-17.61,0.137-28.802-0.473
		c-15.076-0.822-38.082-2.076-89.939-2.076c-4.78,0-14.085,0.235-27.266,0.567c-75.068,1.894-270.308,6.818-315.078-8.682
		c-10.18-3.524-14.779-8.686-12.305-15.831l11.296,3.891c-0.225,0.65,1.968-0.371,4.899,0.644
		c42.719,14.791,236.426,9.904,310.906,8.025c14.274-0.359,24.356-0.614,27.547-0.614c51.604,0,75.131,1.282,90.548,2.123
		c10.852,0.591,17.578,0.958,27.63,0.473c16.516-0.797,42.782-3.93,111.863-12.169l21.398-2.551l493.857-58.829L1654.327,1546.004z"
		/>
	<path style="clip-path:url(#SVGID_00000164507852544047113470000009323567343466044291_);fill:#467660;" d="M634.803,1660.022
		c140.058,1.887,281.387,3.677,423.741,4.866c142.399,1.19,285.883,1.781,430.251,1.271c20.104-0.071,77.305-10.746,130.462-23.441
		c46.294-11.057,89.171-23.524,100.992-31.613l6.75,9.891c-13.057,8.934-57.458,21.998-104.978,33.347
		c-53.893,12.872-112.257,23.696-133.227,23.771c-144.417,0.51-287.929-0.081-430.345-1.271
		c-142.461-1.19-283.771-2.979-423.788-4.866L634.803,1660.022z"/>
	<path style="clip-path:url(#SVGID_00000164507852544047113470000009323567343466044291_);fill:#467660;" d="M1805.788,1633.027
		c-0.099,0.003-6.093,2.759-15.463,6.938c-27.779,12.39-81.462,36.332-117.036,42.507c-26.86,4.662-66.677,15.603-109.155,27.273
		c-66.029,18.143-138.43,38.035-179.831,39.282c-97.354,2.934-195.133,5.688-293.09,8.23c-97.773,2.537-195.69,4.862-293.501,6.941
		c-20.46,0.435-42.107,0.237-63.469,0.042c-10.43-0.096-20.787-0.19-34.62-0.19v-12c8.782,0,21.699,0.118,34.713,0.237
		c21.249,0.194,42.78,0.391,63.142-0.042c97.634-2.075,195.541-4.4,293.454-6.941c97.727-2.537,195.499-5.291,293.043-8.23
		c39.967-1.204,111.646-20.898,177.019-38.86c42.916-11.792,83.144-22.845,110.28-27.555c34.162-5.93,86.891-29.447,114.177-41.616
		c10.661-4.754,17.706-7.897,20.01-7.969L1805.788,1633.027z"/>
</g>
<g>
	<defs>
		<path id="SVGID_00000104677069629539245890000015733525458621662375_" d="M1426.767,608.082
			c-0.222-0.628-204,139.28-218.485,184.485c-0.745,2.325-0.441,158.357-4.857,195.715c-6.779,57.355-30.121,308.8-94,308.8
			c-31.079,0-120.083-49.197-184.6-45.427c-53.804,3.145-87.228,55.005-87.229,91.599c21.756,8.936,459.109,53.828,523.486,53.828
			c94.266,0,170.06,189.456,272.343,243.485c29.597,15.634,220.343,64.026,220.343,23.028c0-54.147,18-161.117,18-251.714
			c0-188.756-102.587-410.465-162.171-591.657c-29.672-90.231-315.076-176.536-286.972-209.485L1426.767,608.082z"/>
	</defs>
	
		<use xlink:href="#SVGID_00000104677069629539245890000015733525458621662375_"  style="overflow:visible;fill-rule:evenodd;clip-rule:evenodd;fill:#009ade;"/>
	<clipPath id="SVGID_00000172433364491119346290000016591362267223829695_">
		<use xlink:href="#SVGID_00000104677069629539245890000015733525458621662375_"  style="overflow:visible;"/>
	</clipPath>
	<path style="clip-path:url(#SVGID_00000172433364491119346290000016591362267223829695_);fill:#FEFEFE;" d="M1338.695,643.161
		c1.443-3.495,8.12-2.369,18.523,1.928c16.24,6.709,42.944,20.835,72.686,36.568c54.354,28.753,118.891,62.893,147.071,66.405
		c33.903,4.225,83.293,92.155,129.413,199.79c63.05,147.145,120.417,331.446,123.309,387.807
		c0.404,7.885,19.225,77.167,37.566,140.775c16.104,55.849,31.552,107.138,33.262,107.729l-1.297,3.766
		c-3.08-1.066-19.388-53.511-35.793-110.401c-18.408-63.84-37.305-133.52-37.723-141.666
		c-2.873-56.006-60.094-239.647-122.996-386.447c-45.616-106.458-93.991-193.368-126.225-197.385
		c-28.899-3.601-93.794-37.93-148.447-66.841c-29.679-15.7-56.327-29.796-72.342-36.412c-8.084-3.339-12.967-4.957-13.32-4.1
		L1338.695,643.161z"/>
	<path style="clip-path:url(#SVGID_00000172433364491119346290000016591362267223829695_);fill:#FEFEFE;" d="M1307.072,622.453
		c50.755,38.199,95.949,65.829,136.75,90.771c99.168,60.626,172.471,105.439,237.524,247.651
		c29.839,65.231,37.953,114.489,46.706,167.622c7.039,42.729,14.493,87.976,34.058,146.06
		c50.331,149.423,50.13,242.298,49.812,390.056c-0.022,10.279-0.045,20.86-0.045,37.435h-4c0-9.2,0.031-23.535,0.061-37.435
		c0.317-147.354,0.518-239.974-49.608-388.791c-19.668-58.391-27.149-103.801-34.214-146.684
		c-8.708-52.863-16.782-101.871-46.394-166.607c-64.542-141.096-137.405-185.64-235.978-245.901
		c-40.855-24.976-86.11-52.642-137.063-90.99L1307.072,622.453z"/>
	<path style="clip-path:url(#SVGID_00000172433364491119346290000016591362267223829695_);fill:#FEFEFE;" d="M1278.971,628.375
		c53.514,34.993,62.192,44.11,86.286,69.42c7.239,7.606,15.892,16.695,27.862,28.666c23.664,23.664,51.243,42.119,79.413,60.968
		c68.946,46.136,141.401,94.619,169.983,226.996c10.798,50.012,21.254,86.991,30.838,120.886
		c18.675,66.048,34.048,120.418,42.173,236.089c0.278,3.97,10.436,143.999,17.644,242.862c3.925,53.828,6.489,94.654,6.686,94.925
		l-3.234,2.344c-0.303-0.418-3.464-42.513-7.436-96.987c-7.194-98.678-17.36-238.838-17.644-242.878
		c-8.096-115.252-23.418-169.444-42.032-235.276c-9.607-33.978-20.089-71.049-30.9-121.121
		c-28.243-130.811-100.008-178.832-168.297-224.527c-28.358-18.976-56.123-37.555-80.021-61.453
		c-11.741-11.742-20.553-20.998-27.925-28.743c-23.847-25.051-32.437-34.075-85.583-68.827L1278.971,628.375z"/>
	<path style="clip-path:url(#SVGID_00000172433364491119346290000016591362267223829695_);fill:#FEFEFE;" d="M1316.346,688.19
		c-0.324-0.017-0.212,0.017,0.048,0.09C1316.365,688.221,1316.349,688.19,1316.346,688.19 M1313.6,688.662
		c0.16-3.153,1.149-4.55,2.949-4.457c2.471,0.126,5.256,6.32,9.477,15.708c7.522,16.732,19.992,44.469,37.328,63.597
		c71.233,78.597,114.883,114.847,144.17,139.17c23.413,19.444,37.728,31.332,49.659,51.066
		c18.662,30.866,31.142,80.517,63.255,208.274c3.591,14.288,7.429,29.556,11.548,45.884c24.038,95.279,23.94,315.38,23.889,434.706
		c-0.002,4.017,0.003-9.043,0.003,15.437h-4c0-14.622,0.006-0.71,0.012-15.437c0.053-119.138,0.15-338.893-23.777-433.736
		c-4.12-16.329-7.958-31.597-11.549-45.885c-32.006-127.333-44.445-176.818-62.802-207.18
		c-11.601-19.186-25.708-30.903-48.784-50.066c-29.372-24.394-73.148-60.749-144.576-139.561
		c-17.767-19.603-30.396-47.696-38.016-64.644c-2.887-6.419-4.989-11.094-5.738-12.721L1313.6,688.662z"/>
	<path style="clip-path:url(#SVGID_00000172433364491119346290000016591362267223829695_);fill:#FEFEFE;" d="M1227.182,682.539
		c19.035,16.463,30.423,36.001,42.276,56.338c18.143,31.127,37.396,64.16,87.169,90.261c28.78,15.092,76.048,58.066,111.535,106.234
		c27.164,36.871,47.494,76.881,47.535,109.989c0.017,13.614,9.411,48.795,22.051,96.135
		c26.146,97.916,66.129,247.654,66.129,368.895c0,30.287-2.281,63.126-4.41,93.763c-1.853,26.679-3.59,51.682-3.59,71.895h-4
		c0-20.25,1.744-45.364,3.605-72.161c2.121-30.525,4.395-63.246,4.395-93.496c0-120.737-39.898-270.156-65.987-367.863
		c-12.712-47.607-22.159-82.986-22.177-97.166c-0.039-32.146-20.042-71.352-46.77-107.629
		c-35.152-47.713-81.822-90.203-110.16-105.063c-50.805-26.642-70.355-60.185-88.778-91.792
		c-11.683-20.044-22.905-39.3-41.433-55.324L1227.182,682.539z"/>
	<path style="clip-path:url(#SVGID_00000172433364491119346290000016591362267223829695_);fill:#FEFEFE;" d="M1211.252,730.601
		c97.021,92.257,144.43,177.77,166.233,271.25c21.774,93.358,17.962,194.514,12.556,318.282
		c-2.697,61.714-93.654,94.197-151.623,114.898c-13.657,4.877-25.465,9.095-33.721,12.836l-1.641-3.642
		c8.45-3.829,20.306-8.063,34.018-12.96c56.987-20.351,146.403-52.283,148.982-111.305c5.393-123.45,9.197-224.342-12.463-317.203
		c-21.63-92.738-68.709-177.617-165.092-269.266L1211.252,730.601z"/>
	<path style="clip-path:url(#SVGID_00000172433364491119346290000016591362267223829695_);fill:#FEFEFE;" d="M1172.66,756.075
		c15.901,12.972,29.247,23.655,40.847,32.94c42.733,34.207,62.174,49.768,73.849,70.619c9.749,17.413,13.9,38.167,21.515,76.24
		c5.098,25.486,11.753,58.759,22.602,103.704c1.089,4.515,2.176,9,3.253,13.451c16.954,70.034,31.97,132.063,31.97,182.688
		c0,88.703-45.545,142.33-205.446,142.33c-17.255,0-111.073,8.744-187.424,18.243c-51.025,6.347-94.106,12.974-100.854,17.42
		l-2.187-3.327c7.341-4.839,51.03-11.651,102.557-18.062c76.484-9.516,170.557-18.275,187.908-18.275
		c156.788,0,201.446-52.119,201.446-138.329c0-50.205-14.957-111.991-31.845-181.75c-1.077-4.452-2.164-8.937-3.253-13.452
		c-10.94-45.325-17.57-78.471-22.648-103.86c-7.536-37.68-11.644-58.22-21.077-75.068c-11.313-20.207-30.554-35.607-72.849-69.463
		c-11.89-9.517-25.571-20.468-40.878-32.956L1172.66,756.075z"/>
	<path style="clip-path:url(#SVGID_00000172433364491119346290000016591362267223829695_);fill:#FEFEFE;" d="M801.672,1331.986
		c51.23-22.637,133.637-13.327,217.651-3.836c46.296,5.229,93.083,10.516,135.298,10.516c88.822,0,157.256-23.559,157.256-121.306
		c0-135.544-59.081-252.553-97.556-328.751c-18.23-36.106-31.872-63.126-32.6-79.103l-18.021-12.155l2.234-3.313l18.863,12.724
		l0.865,0.585l0.01,1.056c0.132,14.879,13.804,41.955,32.211,78.409c38.646,76.541,97.992,194.073,97.992,330.548
		c0,100.971-70.174,125.306-161.256,125.306c-42.371,0-89.3-5.302-135.735-10.547c-83.476-9.431-165.354-18.68-215.604,3.523
		L801.672,1331.986z"/>
	<path style="clip-path:url(#SVGID_00000172433364491119346290000016591362267223829695_);fill:#FEFEFE;" d="M1179.814,897.57
		c2.379,9.574,7.043,25.197,12.895,44.796c22.215,74.411,61.513,206.045,59.185,286.82c-1.239,42.992-14.222,71.813-47.558,70.853
		c-13.241-0.381-27.116-0.69-41.488-1.01c-83.635-1.86-184.083-4.095-258.762-22.702c-5.558-1.384-50.2-7.612-86.622-11.812
		c-23.865-2.751-44.05-4.646-46.922-3.739l-1.203-3.813c3.468-1.096,24.241,0.777,48.578,3.583
		c36.538,4.212,81.456,10.494,87.123,11.905c74.283,18.509,174.47,20.737,257.887,22.593c14.441,0.321,28.384,0.632,41.52,1.01
		c30.42,0.877,42.293-26.362,43.464-66.978c2.309-80.112-36.877-211.371-59.028-285.57c-5.853-19.603-10.518-35.231-12.941-44.984
		L1179.814,897.57z"/>
	<path style="clip-path:url(#SVGID_00000172433364491119346290000016591362267223829695_);fill:#FEFEFE;" d="M1136.746,1216.784
		c5.551,10.427,10.635,16.652,15.265,19.637c4.014,2.587,7.663,2.594,10.956,0.753c3.595-2.009,6.907-6.137,9.906-11.544
		c8.195-14.777,13.743-38.64,16.521-55.896c5.953-36.979-2.365-70.584-10.638-104.004c-3.229-13.038-6.449-26.05-8.84-39.333
		l3.922-0.703c2.351,13.063,5.568,26.06,8.792,39.083c8.369,33.806,16.784,67.799,10.701,105.581
		c-2.831,17.585-8.516,41.957-16.974,57.209c-3.339,6.021-7.151,10.687-11.453,13.091c-4.604,2.574-9.628,2.617-15.05-0.877
		c-5.178-3.338-10.729-10.048-16.624-21.122L1136.746,1216.784z"/>
	<path style="clip-path:url(#SVGID_00000172433364491119346290000016591362267223829695_);fill:#FEFEFE;" d="M1400.337,945.061
		c-0.233-0.801-0.252-1.263-0.522-1.004C1399.799,944.072,1399.982,944.42,1400.337,945.061 M1401.965,947.912l-0.051-0.054
		c2.281,4.019,6.222,10.915,10.82,19.18c12.923,23.225,31.225,56.118,32.783,71.955c0.396,4.026,4.969,16.561,11.341,34.035
		c13.323,36.53,34.445,94.447,42.301,143.849c3.471,21.821,11.901,100.299,20.587,181.148
		c10.462,97.393,21.295,198.219,24.026,206.742l2.995,1.497l-1.781,3.563l-3.657-1.829l-0.544-0.272l-0.3-0.524
		c-2.812-4.927-13.955-108.656-24.708-208.755c-8.685-80.839-17.114-159.306-20.555-180.946
		c-7.793-49.007-28.84-106.715-42.114-143.113c-6.471-17.742-11.112-30.47-11.559-35.003c-1.479-15.015-19.544-47.483-32.3-70.408
		c-8.196-14.733-14.329-25.755-12.2-27.794c1.355-1.299,3.826-0.171,7.79,3.965L1401.965,947.912z"/>
	<path style="clip-path:url(#SVGID_00000172433364491119346290000016591362267223829695_);fill:#FEFEFE;" d="M1429.861,1083.851
		c0.03,0.306,0.189,2.525,0.477,6.536c4.18,58.29,35.186,490.761,47.984,493.714l-0.891,3.892
		c-15.682-3.619-46.873-438.685-51.078-497.324l-0.461-6.427L1429.861,1083.851z"/>
</g>
<path style="fill-rule:evenodd;clip-rule:evenodd;fill:#1e82d9;" d="M1426.767,608.082
	c-0.206-0.581-175.155,119.485-212.366,173.081l229.813-141.013v-0.011c-18.539-12.079-27.846-22.064-21.589-29.399
	L1426.767,608.082z"/>
<path style="fill-rule:evenodd;clip-rule:evenodd;fill:#1e82d9;" d="M1357.751,1397.048c1.2,0.022,2.313,0.034,3.33,0.034
	c11.932,0,23.567,3.045,34.998,8.457c20.4-31.814,35.584-67.409,32.544-111.986c-6-88.001,20.001-209,23-247c3-38,29-94,29-94
	s-49,86-54,75c-5-11-21-129-21-129s-3,44-3,96c0,52,12,178.001,4,284.001C1402.122,1338.191,1377.995,1375.671,1357.751,1397.048"/>
<path style="fill-rule:evenodd;clip-rule:evenodd;fill:#332C2B;" d="M1046.712,645.587c-6.088,2.828-8.732,10.056-5.905,16.144
	c2.828,6.088,10.056,8.733,16.145,5.905c6.089-2.828,8.732-10.056,5.905-16.145C1060.029,645.403,1052.801,642.759,1046.712,645.587
	"/>
<path style="fill-rule:evenodd;clip-rule:evenodd;fill:#332C2B;" d="M1050.693,616.528c0,0-24.786,2.815-33.867,11.261
	c0,0,1.806-9.856,12.947-13.354C1040.915,610.938,1050.693,616.528,1050.693,616.528"/>
<path style="fill-rule:evenodd;clip-rule:evenodd;fill:#332C2B;" d="M1171.402,757.622c0,0-4.181,28.112-17.258,32.587
	c-13.078,4.476-20.437,4.781-23.558,3.04c0,0-1.094,10.88,11.446,10.562c12.54-0.318,34.357-10.371,35.039-28.32
	C1177.754,757.543,1171.402,757.622,1171.402,757.622"/>
<polygon style="fill-rule:evenodd;clip-rule:evenodd;fill:#009ade;" points="685.46,1538.344 658.946,1753.174 364.124,1751.605 
	352.391,1536.491 324.83,1533.829 319.766,1444.655 719.063,1460.608 715.112,1538.521 "/>
<polygon style="fill-rule:evenodd;clip-rule:evenodd;fill:#1e82d9;" points="685.46,1538.344 658.946,1753.174 552.678,1752.608 
	560.245,1541.136 581.746,1534.637 588.689,1455.4 719.063,1460.608 715.112,1538.521 "/>
<path style="fill-rule:evenodd;clip-rule:evenodd;fill:#5b8c24;" d="M641.931,1222.966c-53.96,22.747-93.097,54.271-89.313,67.501
	c3.783,13.23,39.93,34.428,107.241,32.136C791.624,1318.113,763.42,1171.752,641.931,1222.966"/>
<path style="fill-rule:evenodd;clip-rule:evenodd;fill:#5b8c24;" d="M452.275,1285.566c39.746,43.004,62.366,87.88,53.456,98.365
	c-8.91,10.486-50.586,14.859-110.939-15.031C276.646,1310.387,362.788,1188.743,452.275,1285.566"/>
<path style="fill-rule:evenodd;clip-rule:evenodd;fill:#5b8c24;" d="M605.853,1116.137
	c-10.787,84.746-39.725,152.108-59.799,151.984c-20.074-0.124-64.044-42.597-87.237-138.076
	C413.417,943.137,630.141,925.333,605.853,1116.137"/>
<polygon style="fill:#332C2B;" points="546.103,1307.391 592.701,1287.248 586.389,1272.623 547.419,1289.468 553.514,1095.498 
	537.576,1094.373 524.069,1389.263 432.513,1316.687 422.576,1329.186 522.655,1408.519 519.415,1452.632 535.352,1453.757 "/>
<path style="fill-rule:evenodd;clip-rule:evenodd;fill:#009ade;" d="M305.577,535.169h483.282c19.173,0,34.859,15.687,34.859,34.859
	v104.58c0,19.173-15.687,34.859-34.859,34.859H305.577c-19.173,0-34.859-15.687-34.859-34.859v-104.58
	C270.717,550.856,286.404,535.169,305.577,535.169"/>
<path style="fill-rule:evenodd;clip-rule:evenodd;fill:#5b8c24;" d="M305.577,521.669h483.282c19.173,0,34.859,15.687,34.859,34.859
	v104.58c0,19.173-15.687,34.859-34.859,34.859H305.577c-19.173,0-34.859-15.687-34.859-34.859v-104.58
	C270.717,537.356,286.404,521.669,305.577,521.669"/>
<path style="fill-rule:evenodd;clip-rule:evenodd;fill:#FEFEFE;" d="M761.079,648.441v-30.077h12.366v43.499h-15.225l-27.591-30.077
	v30.077h-12.304v-43.499h15.225L761.079,648.441z M669.979,640.113c0,2.403,0.373,4.434,1.119,6.09
	c0.746,1.657,1.781,3.003,3.107,4.04c1.326,1.035,2.92,1.781,4.785,2.237c1.865,0.456,3.936,0.684,6.215,0.684
	c2.278,0,4.35-0.228,6.214-0.684c1.864-0.456,3.47-1.202,4.816-2.237c1.346-1.036,2.382-2.383,3.107-4.04
	c0.725-1.657,1.087-3.687,1.087-6.09c0-2.402-0.363-4.433-1.087-6.09c-0.725-1.657-1.761-3.003-3.107-4.039
	c-1.346-1.035-2.952-1.781-4.816-2.237c-1.864-0.456-3.936-0.684-6.214-0.684c-2.279,0-4.35,0.228-6.215,0.684
	c-1.864,0.456-3.459,1.202-4.785,2.237c-1.326,1.036-2.361,2.382-3.107,4.039C670.352,635.681,669.979,637.711,669.979,640.113z
	 M685.204,663.293c-3.604,0-7.064-0.498-10.378-1.492c-3.315-0.994-6.246-2.465-8.794-4.412c-2.547-1.947-4.578-4.36-6.09-7.24
	s-2.268-6.225-2.268-10.036c0-3.811,0.756-7.156,2.268-10.036c1.512-2.879,3.543-5.292,6.09-7.24
	c2.548-1.947,5.479-3.417,8.794-4.412c3.314-0.994,6.773-1.491,10.378-1.491c3.604,0,7.074,0.497,10.409,1.491
	c3.335,0.995,6.276,2.465,8.824,4.412c2.548,1.947,4.578,4.361,6.09,7.24c1.512,2.879,2.268,6.225,2.268,10.036
	c0,3.812-0.756,7.157-2.268,10.036c-1.512,2.879-3.542,5.292-6.09,7.24c-2.548,1.947-5.489,3.418-8.824,4.412
	C692.278,662.795,688.808,663.293,685.204,663.293z M640.834,661.863v-43.499h11.621v43.499H640.834z M636.857,618.364v8.699
	h-18.456v34.8h-12.304v-34.8h-18.519v-8.699H636.857z M575.026,644.464l-6.525-18.829l-7.271,18.829H575.026z M594.601,661.863
	h-12.304l-3.666-8.7h-20.258l-3.667,8.7h-12.304l17.4-43.499h17.4L594.601,661.863z M528.357,632.843
	c-0.58-1.035-1.367-1.957-2.361-2.765c-0.995-0.808-2.134-1.492-3.418-2.051c-1.284-0.559-2.662-0.984-4.132-1.273
	c-1.471-0.291-2.994-0.435-4.568-0.435c-2.278,0-4.391,0.269-6.338,0.808c-1.947,0.539-3.635,1.367-5.064,2.486
	c-1.429,1.119-2.548,2.548-3.356,4.288c-0.808,1.74-1.211,3.811-1.211,6.214c0,2.403,0.404,4.475,1.211,6.215
	c0.808,1.74,1.927,3.169,3.356,4.288s3.118,1.947,5.064,2.486c1.947,0.538,4.06,0.808,6.338,0.808c1.574,0,3.097-0.145,4.568-0.435
	c1.471-0.29,2.848-0.715,4.132-1.274c1.284-0.56,2.423-1.243,3.418-2.051c0.994-0.808,1.781-1.729,2.361-2.765h12.366
	c-0.87,2.61-2.196,4.909-3.977,6.898c-1.782,1.988-3.874,3.645-6.276,4.971c-2.403,1.326-5.023,2.331-7.861,3.014
	c-2.838,0.684-5.749,1.025-8.732,1.025c-3.604,0-7.105-0.498-10.502-1.492c-3.397-0.994-6.411-2.465-9.042-4.412
	c-2.63-1.947-4.744-4.36-6.338-7.24c-1.595-2.879-2.393-6.225-2.393-10.036c0-3.811,0.797-7.156,2.393-10.036
	c1.595-2.879,3.708-5.292,6.338-7.24c2.631-1.947,5.645-3.417,9.042-4.412c3.397-0.994,6.898-1.491,10.502-1.491
	c2.983,0,5.893,0.332,8.732,0.994c2.837,0.663,5.458,1.668,7.861,3.014c2.403,1.346,4.495,3.014,6.276,5.002
	c1.781,1.989,3.107,4.288,3.977,6.897H528.357z M480.632,645.893c0,2.403-0.372,4.506-1.118,6.308
	c-0.746,1.802-1.751,3.356-3.014,4.661c-1.264,1.305-2.724,2.372-4.381,3.2c-1.657,0.829-3.397,1.482-5.22,1.958
	c-1.823,0.477-3.667,0.808-5.531,0.994c-1.864,0.187-3.646,0.28-5.344,0.28c-1.699,0-3.491-0.094-5.376-0.28
	c-1.885-0.186-3.739-0.518-5.561-0.994c-1.823-0.476-3.563-1.129-5.22-1.958c-1.657-0.829-3.118-1.895-4.381-3.2
	c-1.263-1.305-2.268-2.858-3.014-4.661c-0.746-1.802-1.119-3.904-1.119-6.308v-27.528h12.304v27.528c0,1.45,0.3,2.683,0.901,3.698
	c0.601,1.015,1.45,1.844,2.548,2.486c1.098,0.642,2.403,1.108,3.915,1.398c1.512,0.29,3.179,0.435,5.002,0.435
	c1.823,0,3.48-0.145,4.971-0.435c1.492-0.29,2.786-0.756,3.884-1.398c1.098-0.642,1.947-1.471,2.548-2.486
	c0.6-1.015,0.901-2.247,0.901-3.698v-27.528h12.304V645.893z M414.202,638.685c0-2.403-0.165-4.36-0.497-5.873
	c-0.332-1.512-0.88-2.692-1.647-3.542c-0.766-0.849-1.802-1.429-3.107-1.74c-1.305-0.311-2.931-0.466-4.878-0.466h-18.145v26.1
	h18.145c1.906,0,3.511-0.155,4.816-0.466c1.305-0.311,2.351-0.891,3.138-1.74c0.787-0.849,1.346-2.03,1.678-3.543
	c0.332-1.512,0.497-3.469,0.497-5.872V638.685z M404.073,618.364c3.604,0,6.763,0.341,9.477,1.025
	c2.713,0.684,4.981,1.823,6.804,3.418c1.823,1.595,3.19,3.687,4.102,6.276c0.911,2.589,1.367,5.789,1.367,9.601v2.858
	c0,3.811-0.456,7.012-1.367,9.601c-0.911,2.59-2.278,4.682-4.102,6.276c-1.823,1.595-4.091,2.734-6.804,3.418
	c-2.713,0.684-5.873,1.025-9.477,1.025h-30.45v-43.499H404.073z M333.293,643.034v10.129h34.116v8.7h-46.42v-43.499h46.42v8.699
	h-34.116v7.271h31.195v8.7H333.293z M696.514,570.253c-0.58-1.036-1.367-1.958-2.361-2.766c-0.995-0.808-2.134-1.491-3.418-2.05
	c-1.284-0.56-2.662-0.984-4.132-1.274c-1.471-0.29-2.994-0.435-4.567-0.435c-2.279,0-4.392,0.269-6.339,0.808
	c-1.947,0.539-3.635,1.367-5.065,2.486s-2.548,2.548-3.356,4.288c-0.808,1.74-1.211,3.811-1.211,6.214
	c0,2.403,0.404,4.474,1.211,6.214c0.808,1.74,1.927,3.169,3.356,4.288c1.429,1.119,3.118,1.947,5.065,2.486
	c1.947,0.539,4.06,0.808,6.339,0.808c1.574,0,3.097-0.145,4.567-0.435c1.47-0.29,2.848-0.715,4.132-1.274
	c1.284-0.559,2.423-1.243,3.418-2.051c0.994-0.808,1.781-1.729,2.361-2.765h12.366c-0.87,2.61-2.196,4.909-3.977,6.898
	c-1.781,1.988-3.873,3.646-6.276,4.971c-2.403,1.326-5.023,2.331-7.861,3.014c-2.838,0.683-5.748,1.025-8.731,1.025
	c-3.604,0-7.105-0.497-10.503-1.492c-3.397-0.994-6.411-2.465-9.042-4.412c-2.63-1.947-4.744-4.36-6.338-7.24
	c-1.595-2.879-2.393-6.225-2.393-10.036c0-3.812,0.798-7.157,2.393-10.036c1.595-2.879,3.708-5.292,6.338-7.239
	c2.631-1.947,5.645-3.418,9.042-4.412c3.397-0.995,6.898-1.492,10.503-1.492c2.982,0,5.893,0.332,8.731,0.995
	c2.837,0.663,5.458,1.667,7.861,3.014c2.403,1.346,4.495,3.014,6.276,5.002c1.781,1.989,3.107,4.288,3.977,6.898H696.514z
	 M636.981,599.273v-43.499h11.621v43.499H636.981z M601.498,599.273h-10.129l-15.97-30.449v30.449h-12.305v-43.499h16.654
	l16.716,31.195l16.654-31.195h16.654v43.499h-12.304v-30.449L601.498,599.273z M539.543,581.874l-6.525-18.829l-7.271,18.829
	H539.543z M559.117,599.273h-12.304l-3.666-8.7h-20.258l-3.667,8.7h-12.304l17.399-43.499h17.4L559.117,599.273z M462.673,555.774
	h12.304v34.799h31.195v8.7h-43.5V555.774z M418.428,567.022c0,0.912,0.476,1.657,1.429,2.237c0.953,0.58,2.092,1.057,3.418,1.43
	c1.325,0.373,2.682,0.663,4.07,0.87c1.388,0.207,2.517,0.373,3.386,0.497c4.847,0.787,8.938,1.563,12.273,2.33
	c3.334,0.767,6.027,1.709,8.078,2.828c2.051,1.119,3.522,2.506,4.412,4.164c0.891,1.657,1.336,3.749,1.336,6.276
	c0,2.403-0.839,4.433-2.517,6.09c-1.678,1.657-3.821,3.003-6.432,4.039c-2.61,1.036-5.468,1.781-8.576,2.237
	c-3.107,0.457-6.09,0.684-8.948,0.684c-3.273,0-6.432-0.28-9.477-0.839c-3.045-0.56-5.749-1.419-8.109-2.579
	c-2.362-1.16-4.247-2.6-5.655-4.319c-1.409-1.719-2.113-3.718-2.113-5.997h14.107c0,1.036,0.466,1.864,1.398,2.485
	c0.932,0.622,2.04,1.098,3.324,1.43c1.285,0.331,2.579,0.549,3.884,0.652c1.305,0.104,2.331,0.155,3.076,0.155
	c0.829,0,1.896-0.031,3.201-0.093c1.305-0.062,2.579-0.218,3.822-0.466c1.243-0.248,2.31-0.642,3.2-1.181
	c0.891-0.538,1.336-1.305,1.336-2.299c0-1.077-0.486-1.936-1.46-2.579c-0.973-0.642-2.102-1.149-3.387-1.522
	c-1.284-0.373-2.579-0.652-3.884-0.839c-1.305-0.186-2.268-0.342-2.89-0.466c-3.894-0.746-7.436-1.43-10.626-2.051
	c-3.19-0.621-5.935-1.43-8.234-2.424c-2.299-0.994-4.081-2.289-5.344-3.884c-1.264-1.595-1.896-3.76-1.896-6.494
	c0-2.32,0.808-4.298,2.424-5.934c1.616-1.637,3.687-2.983,6.214-4.039c2.527-1.057,5.303-1.833,8.328-2.33
	c3.024-0.497,5.944-0.746,8.762-0.746c3.48,0,6.804,0.28,9.974,0.839c3.169,0.559,5.945,1.419,8.327,2.579
	c2.382,1.16,4.277,2.589,5.686,4.288c1.408,1.698,2.112,3.708,2.112,6.027h-14.106c0-0.994-0.486-1.802-1.46-2.423
	c-0.973-0.622-2.112-1.108-3.418-1.461c-1.305-0.352-2.631-0.58-3.977-0.684c-1.347-0.103-2.393-0.155-3.138-0.155
	c-0.705,0-1.719,0.041-3.045,0.124c-1.326,0.083-2.651,0.259-3.978,0.528c-1.326,0.269-2.475,0.643-3.449,1.119
	C418.915,565.603,418.428,566.235,418.428,567.022z M387.543,599.273v-43.499h11.621v43.499H387.543z"/>
</svg>
