<?xml version="1.0" encoding="utf-8"?>
<!-- Generator: Adobe Illustrator 27.5.0, SVG Export Plug-In . SVG Version: 6.00 Build 0)  -->
<svg version="1.1" id="Layer_1" xmlns="http://www.w3.org/2000/svg" xmlns:xlink="http://www.w3.org/1999/xlink" x="0px" y="0px"
	 viewBox="0 0 2000 2000" style="enable-background:new 0 0 2000 2000;" xml:space="preserve">
<g>
	<path style="fill:#009ade;" d="M1000,840.326c29.671,0,57.471,8.144,81.3,22.3l19.985-19.726
		c-29.917-19.373-64.799-29.77-101.285-29.77c-49.915,0-96.842,19.438-132.136,54.733c-35.295,35.295-54.733,82.222-54.733,132.136
		s19.438,96.842,54.733,132.137c35.295,35.294,82.222,54.732,132.136,54.732s96.842-19.438,132.136-54.732
		c35.295-35.295,54.733-82.222,54.733-132.137c0-34.627-9.362-67.813-26.876-96.678l-20.334,19.353
		c12.743,22.924,20.015,49.29,20.015,77.325c0,88.045-71.63,159.674-159.674,159.674S840.326,1088.045,840.326,1000
		C840.326,911.955,911.955,840.326,1000,840.326z"/>
	<path style="fill:#009ade;" d="M1230.863,715.002c-26.711-21.694-56.218-39.431-88.102-52.917
		c-45.229-19.13-93.26-28.83-142.761-28.83s-97.532,9.7-142.761,28.83c-43.675,18.473-82.893,44.913-116.568,78.587
		c-33.674,33.674-60.115,72.893-78.587,116.568c-19.13,45.229-28.83,93.26-28.83,142.761c0,49.5,9.7,97.532,28.83,142.761
		c18.473,43.675,44.913,82.893,78.587,116.567c33.674,33.675,72.893,60.115,116.568,78.588c45.229,19.13,93.26,28.83,142.761,28.83
		s97.532-9.7,142.761-28.83c43.675-18.473,82.893-44.914,116.568-78.588c33.674-33.674,60.115-72.893,78.587-116.567
		c19.13-45.229,28.83-93.26,28.83-142.761c0-49.5-9.7-97.532-28.83-142.761c-12.039-28.463-27.465-55.032-46.068-79.409
		l-32.993,31.401c39.467,53.411,62.825,119.412,62.825,190.768c0,177.375-144.305,321.679-321.679,321.679
		S678.321,1177.375,678.321,1000S822.625,678.321,1000,678.321c74.816,0,143.748,25.674,198.45,68.674L1230.863,715.002z"/>
	<path style="fill:#009ade;" d="M1521.552,779.66c-12.461-29.461-27.271-57.607-44.336-84.301l-44.943,39.97
		c47.374,77.089,74.721,167.745,74.721,264.671c0,279.558-227.437,506.995-506.995,506.995S493.005,1279.558,493.005,1000
		S720.442,493.005,1000,493.005c102.443,0,197.884,30.543,277.703,82.998l41.357-43.675c-30.919-21.135-63.899-39.153-98.719-53.881
		c-69.804-29.525-143.937-44.495-220.34-44.495s-150.536,14.97-220.34,44.495c-67.408,28.511-127.94,69.321-179.916,121.296
		c-51.975,51.975-92.785,112.508-121.296,179.916c-29.525,69.804-44.495,143.937-44.495,220.34s14.97,150.536,44.495,220.34
		c28.511,67.408,69.321,127.941,121.296,179.916c51.975,51.976,112.508,92.786,179.916,121.297
		c69.804,29.525,143.937,44.495,220.34,44.495s150.536-14.97,220.34-44.495c67.408-28.511,127.94-69.321,179.916-121.297
		c51.975-51.975,92.785-112.508,121.296-179.916c29.525-69.804,44.495-143.937,44.495-220.34S1551.077,849.464,1521.552,779.66z"/>
	<path style="fill:#009ade;" d="M1297.613,687.328l-266.721,263.265c-8.957-5.613-19.541-8.869-30.891-8.869
		c-32.185,0-58.275,26.091-58.275,58.275s26.091,58.275,58.275,58.275c32.185,0,58.275-26.091,58.275-58.275
		c0-10.841-2.97-20.984-8.126-29.678l271.397-258.301l76.627,17.24l147.5-131.181l-110.791-19.854l-16.384-111.357L1282.774,610.2
		L1297.613,687.328z"/>
</g>
</svg>
